<svg xmlns="http://www.w3.org/2000/svg" xmlns:xlink="http://www.w3.org/1999/xlink" fill="none" version="1.1" width="16" height="16" viewBox="0 0 16 16"><defs><clipPath id="master_svg0_0_3562"><rect x="0" y="0" width="16" height="16" rx="0"/></clipPath></defs><g clip-path="url(#master_svg0_0_3562)"><g><g><path d="M8.7635749375,1.9555004291229248C8.5404189375,1.7323430291229247,8.1786109375,1.7323430291229247,7.9554539375,1.9555004291229248C7.7322965375,2.178657429122925,7.7322965375,2.540465429122925,7.9554539375,2.763621429122925C7.9554539375,2.763621429122925,8.7635749375,1.9555004291229248,8.7635749375,1.9555004291229248C8.7635749375,1.9555004291229248,8.7635749375,1.9555004291229248,8.7635749375,1.9555004291229248ZM14.0000959375,8.000142429122924C14.0000959375,8.000142429122924,14.4041559375,8.404202429122925,14.4041559375,8.404202429122925C14.511315937500001,8.297032429122925,14.571525937499999,8.151682429122925,14.571525937499999,8.000142429122924C14.571525937499999,7.848592429122925,14.511315937500001,7.703242429122925,14.4041559375,7.596072429122925C14.4041559375,7.596072429122925,14.0000959375,8.000142429122924,14.0000959375,8.000142429122924C14.0000959375,8.000142429122924,14.0000959375,8.000142429122924,14.0000959375,8.000142429122924ZM7.9554539375,13.236632429122924C7.7322965375,13.459832429122924,7.7322965375,13.821632429122925,7.9554539375,14.044832429122925C8.1786109375,14.267932429122924,8.5404189375,14.267932429122924,8.7635749375,14.044832429122925C8.7635749375,14.044832429122925,7.9554539375,13.236632429122924,7.9554539375,13.236632429122924C7.9554539375,13.236632429122924,7.9554539375,13.236632429122924,7.9554539375,13.236632429122924ZM7.9554539375,2.763621429122925C7.9554539375,2.763621429122925,13.5960259375,8.404202429122925,13.5960259375,8.404202429122925C13.5960259375,8.404202429122925,14.4041559375,7.596072429122925,14.4041559375,7.596072429122925C14.4041559375,7.596072429122925,8.7635749375,1.9555004291229248,8.7635749375,1.9555004291229248C8.7635749375,1.9555004291229248,7.9554539375,2.763621429122925,7.9554539375,2.763621429122925C7.9554539375,2.763621429122925,7.9554539375,2.763621429122925,7.9554539375,2.763621429122925ZM13.5960259375,7.596072429122925C13.5960259375,7.596072429122925,7.9554539375,13.236632429122924,7.9554539375,13.236632429122924C7.9554539375,13.236632429122924,8.7635749375,14.044832429122925,8.7635749375,14.044832429122925C8.7635749375,14.044832429122925,14.4041559375,8.404202429122925,14.4041559375,8.404202429122925C14.4041559375,8.404202429122925,13.5960259375,7.596072429122925,13.5960259375,7.596072429122925C13.5960259375,7.596072429122925,13.5960259375,7.596072429122925,13.5960259375,7.596072429122925Z" fill="#000000" fill-opacity="1"/></g><g transform="matrix(1,1.3113418617649586e-7,-5.8281862891362834e-8,1,4.3294759288770024e-7,-1.8732083884032136e-7)"><path d="M13.999766856479646,8.571373288497925C14.315466856479645,8.571373288497925,14.571166856479644,8.315532288497925,14.571166856479644,7.999942288497925C14.571166856479644,7.684351288497925,14.315466856479645,7.428513288497925,13.999766856479646,7.428513288497925C13.999766856479646,7.428513288497925,13.999766856479646,8.571373288497925,13.999766856479646,8.571373288497925C13.999766856479646,8.571373288497925,13.999766856479646,8.571373288497925,13.999766856479646,8.571373288497925ZM1.9998958564796447,7.428513288497925C1.6843048564796448,7.428513288497925,1.4284668564796448,7.684351288497925,1.4284668564796448,7.999942288497925C1.4284668564796448,8.315532288497925,1.6843048564796448,8.571373288497925,1.9998958564796447,8.571373288497925C1.9998958564796447,8.571373288497925,1.9998958564796447,7.428513288497925,1.9998958564796447,7.428513288497925C1.9998958564796447,7.428513288497925,1.9998958564796447,7.428513288497925,1.9998958564796447,7.428513288497925ZM13.999766856479646,7.428513288497925C13.999766856479646,7.428513288497925,1.9998958564796447,7.428513288497925,1.9998958564796447,7.428513288497925C1.9998958564796447,7.428513288497925,1.9998958564796447,8.571373288497925,1.9998958564796447,8.571373288497925C1.9998958564796447,8.571373288497925,13.999766856479646,8.571373288497925,13.999766856479646,8.571373288497925C13.999766856479646,8.571373288497925,13.999766856479646,7.428513288497925,13.999766856479646,7.428513288497925C13.999766856479646,7.428513288497925,13.999766856479646,7.428513288497925,13.999766856479646,7.428513288497925Z" fill="#000000" fill-opacity="1"/></g></g></g></svg>