<svg xmlns="http://www.w3.org/2000/svg" xmlns:xlink="http://www.w3.org/1999/xlink" fill="none" version="1.1" width="14" height="14" viewBox="0 0 14 14"><g><g></g><g><path d="M6.577861861531423,0.5614213254108429C6.766311861531422,0.2378698254108429,7.233731861531423,0.2378691254108429,7.422181861531422,0.5614203254108429C7.422181861531422,0.5614203254108429,9.418701861531423,3.989227325410843,9.418701861531423,3.989227325410843C9.487741861531422,4.107757325410843,9.603411861531422,4.1917973254108425,9.737471861531423,4.220827325410843C9.737471861531423,4.220827325410843,13.614421861531422,5.060377325410843,13.614421861531422,5.060377325410843C13.980421861531422,5.139627325410843,14.124821861531423,5.584167325410843,13.875421861531423,5.863377325410843C13.875421861531423,5.863377325410843,11.232321861531423,8.821437325410843,11.232321861531423,8.821437325410843C11.140921861531423,8.923717325410843,11.096721861531423,9.059707325410843,11.110521861531423,9.196167325410842C11.110521861531423,9.196167325410842,11.510121861531422,13.142857325410843,11.510121861531422,13.142857325410843C11.547821861531423,13.515357325410843,11.169721861531423,13.790157325410842,10.827021861531422,13.639157325410842C10.827021861531422,13.639157325410842,7.197031861531422,12.039457325410844,7.197031861531422,12.039457325410844C7.071511861531422,11.984157325410843,6.928531861531423,11.984157325410843,6.803011861531423,12.039457325410844C6.803011861531423,12.039457325410844,3.1729818615314223,13.639157325410842,3.1729818615314223,13.639157325410842C2.8303418615314224,13.790157325410842,2.4521818615314226,13.515357325410843,2.4899018615314223,13.142857325410843C2.4899018615314223,13.142857325410843,2.8895018615314223,9.196167325410842,2.8895018615314223,9.196167325410842C2.9033218615314227,9.059707325410843,2.8591318615314223,8.923717325410843,2.7677418615314227,8.821437325410843C2.7677418615314227,8.821437325410843,0.12466186153142247,5.863377325410843,0.12466186153142247,5.863377325410843C-0.12481913846857752,5.584167325410843,0.019622461531422473,5.139627325410843,0.38557286153142245,5.060377325410843C0.38557286153142245,5.060377325410843,4.2625718615314225,4.220827325410843,4.2625718615314225,4.220827325410843C4.396631861531422,4.1917973254108425,4.512301861531422,4.107757325410843,4.581341861531422,3.989227325410843C4.581341861531422,3.989227325410843,6.577861861531423,0.5614213254108429,6.577861861531423,0.5614213254108429C6.577861861531423,0.5614213254108429,6.577861861531423,0.5614213254108429,6.577861861531423,0.5614213254108429Z" fill="#AEB9E1" fill-opacity="1"/></g></g></svg>