<svg xmlns="http://www.w3.org/2000/svg" xmlns:xlink="http://www.w3.org/1999/xlink" fill="none" version="1.1" width="14.068359375" height="14" viewBox="0 0 14.068359375 14"><g><g></g><g><path d="M0.068359375,6.333549874999901C0.068359375,5.9128298749999,0.249846375,5.512159874999901,0.5671143750000001,5.232439874999901C0.5671143750000001,5.232439874999901,6.078909375,0.37299587499990083,6.078909375,0.37299587499990083C6.642999375,-0.12433212500009916,7.493719375,-0.12433212500009916,8.057809375,0.37299487499990086C8.057809375,0.37299487499990086,13.569559375,5.232439874999901,13.569559375,5.232439874999901C13.886859375,5.512159874999901,14.068359375,5.9128298749999,14.068359375,6.333549874999901C14.068359375,6.333549874999901,14.068359375,12.5258998749999,14.068359375,12.5258998749999C14.068359375,13.3399998749999,13.402059375,13.9999998749999,12.580159375,13.9999998749999C12.580159375,13.9999998749999,1.556559375,13.9999998749999,1.556559375,13.9999998749999C0.734650375,13.9999998749999,0.068359375,13.3399998749999,0.068359375,12.5258998749999C0.068359375,12.5258998749999,0.068359375,6.333549874999901,0.068359375,6.333549874999901C0.068359375,6.333549874999901,0.068359375,6.333549874999901,0.068359375,6.333549874999901Z" fill="#CB3CFF" fill-opacity="1"/></g></g></svg>