<svg xmlns="http://www.w3.org/2000/svg" xmlns:xlink="http://www.w3.org/1999/xlink" fill="none" version="1.1" width="14" height="14" viewBox="0 0 14 14"><g><g></g><g><path d="M3.3625699913977707,13.71994619140625C3.214079991397771,13.71994619140625,3.071679991397771,13.66094619140625,2.966679991397771,13.55604619140625C2.8616899913977707,13.45104619140625,2.802699991397771,13.30864619140625,2.802699991397771,13.16014619140625C2.802699991397771,13.16014619140625,2.802699991397771,10.17183619140625,2.802699991397771,10.17183619140625C2.495549991397771,10.31834619140625,2.1551499913977707,10.38114619140625,1.815939991397771,10.35374619140625C1.528719991397771,10.33264619140625,1.2496899913977708,10.24853619140625,0.9986989913977709,10.10732619140625C0.7477069913977709,9.96611619140625,0.5309259913977709,9.77131619140625,0.3637849913977709,9.53678619140625C0.19664299139777086,9.30226619140625,0.08325089139777085,9.03378619140625,0.03167729139777085,8.75044619140625C-0.01989630860222915,8.46711619140625,-0.008383038602229151,8.175896191406249,0.06539759139777085,7.89751619140625C0.13917799139777084,7.61913619140625,0.27341199139777084,7.36044619140625,0.45854699139777083,7.13984619140625C0.6436809913977708,6.91925619140625,0.8751639913977709,6.74217619140625,1.1365199913977708,6.62121619140625C1.3978799913977709,6.50026619140625,1.6826799913977708,6.43839619140625,1.9706699913977708,6.44003619140625C2.2586499913977707,6.44167619140625,2.5427399913977706,6.50676619140625,2.802699991397771,6.63068619140625C2.802699991397771,6.63068619140625,2.802699991397771,3.64241619140625,2.802699991397771,3.64241619140625C2.802699991397771,3.49392619140625,2.8616899913977707,3.35152619140625,2.966679991397771,3.24652619140625C3.071679991397771,3.14153619140625,3.214079991397771,3.08254619140625,3.3625699913977707,3.08254619140625C3.3625699913977707,3.08254619140625,6.6307799913977705,3.08254619140625,6.6307799913977705,3.08254619140625C6.484259991397771,2.77539619140625,6.421489991397771,2.43499619140625,6.448819991397771,2.0957861914062503C6.469919991397771,1.80856619140625,6.554079991397771,1.52953619140625,6.695289991397771,1.27854519140625C6.836499991397771,1.0275531914062501,7.031299991397771,0.81077219140625,7.265819991397771,0.64363119140625C7.500349991397771,0.47648919140625,7.768829991397771,0.36309709140625,8.052169991397772,0.31152349140625C8.335499991397771,0.25994989140625,8.62671999139777,0.27146316140625,8.905099991397769,0.34524379140625C9.183469991397772,0.41902419140625,9.442169991397773,0.55325819140625,9.66275999139777,0.73839319140625C9.883359991397771,0.92352719140625,10.06039999139777,1.15501019140625,10.181399991397772,1.41636619140625C10.30239999139777,1.67772619140625,10.364199991397772,1.96252619140625,10.362599991397772,2.25051619140625C10.360899991397773,2.53849619140625,10.295799991397772,2.82258619140625,10.171899991397773,3.08254619140625C10.171899991397773,3.08254619140625,13.44009999139777,3.08254619140625,13.44009999139777,3.08254619140625C13.588599991397771,3.08254619140625,13.73099999139777,3.14153619140625,13.83599999139777,3.24652619140625C13.94099999139777,3.35152619140625,13.999999991397772,3.49392619140625,13.999999991397772,3.64241619140625C13.999999991397772,3.64241619140625,13.999999991397772,6.63068619140625,13.999999991397772,6.63068619140625C13.69289999139777,6.48417619140625,13.352399991397771,6.42140619140625,13.01319999139777,6.44873619140625C12.72599999139777,6.46983619140625,12.446999991397771,6.55398619140625,12.19599999139777,6.69520619140625C11.944999991397772,6.83641619140625,11.72819999139777,7.03121619140625,11.561099991397771,7.26573619140625C11.39389999139777,7.50026619140625,11.280499991397772,7.76874619140625,11.228999991397771,8.05207619140625C11.17739999139777,8.33541619140625,11.188899991397772,8.62663619140625,11.26269999139777,8.90500619140625C11.336499991397769,9.18338619140625,11.470699991397773,9.44208619140625,11.655799991397771,9.66267619140625C11.84099999139777,9.88327619140625,12.07249999139777,10.06035619140625,12.333799991397772,10.18130619140625C12.59519999139777,10.30224619140625,12.87999999139777,10.36414619140625,13.167999991397771,10.36244619140625C13.455999991397771,10.36084619140625,13.73999999139777,10.29574619140625,13.999999991397772,10.17183619140625C13.999999991397772,10.17183619140625,13.999999991397772,13.16014619140625,13.999999991397772,13.16014619140625C13.999999991397772,13.30864619140625,13.94099999139777,13.45104619140625,13.83599999139777,13.55604619140625C13.73099999139777,13.66094619140625,13.588599991397771,13.71994619140625,13.44009999139777,13.71994619140625C13.44009999139777,13.71994619140625,3.3625699913977707,13.71994619140625,3.3625699913977707,13.71994619140625C3.3625699913977707,13.71994619140625,3.3625699913977707,13.71994619140625,3.3625699913977707,13.71994619140625Z" fill="#AEB9E1" fill-opacity="1"/></g></g></svg>