<svg xmlns="http://www.w3.org/2000/svg" xmlns:xlink="http://www.w3.org/1999/xlink" fill="none" version="1.1" width="26.169189453125" height="26.16943359375" viewBox="0 0 26.169189453125 26.16943359375"><g><g><path d="M9.55391,0C9.09509,0,8.72314,0.371948,8.72314,0.830769L8.72314,8.72314L8.72307,8.72314C3.90545,8.72314,0,12.6286,0,17.4462C0,22.2638,3.90545,26.1693,8.72307,26.1693L16.6154,26.1693C17.0742,26.1693,17.4461,25.7973,17.4461,25.3385L17.4461,17.4461L17.4462,17.4461C22.2638,17.4461,26.1693,13.5407,26.1693,8.72307C26.1693,3.90545,22.2638,0,17.4462,0L9.55391,0ZM17.4461,17.4461L17.4461,9.55391C17.4461,9.09509,17.0742,8.72314,16.6154,8.72314L8.72314,8.72314L8.72314,16.6154C8.72314,17.0742,9.09509,17.4461,9.55391,17.4461L17.4461,17.4461Z" fill-rule="evenodd" fill="#CB3CFF" fill-opacity="1"/></g><g><path d="M9.460270245300293,0C9.053148245300292,0,8.723109245300293,0.330038,8.723109245300293,0.737161C8.723109245300293,0.737161,8.723111354340293,8.72307,8.723111354340293,8.72307C8.723111354340293,8.72307,16.709019245300293,8.72307,16.709019245300293,8.72307C17.116149245300292,8.72307,17.446179245300293,9.05311,17.446179245300293,9.46024C17.446179245300293,9.46024,17.446179245300293,17.4461,17.446179245300293,17.4461C22.263809245300294,17.4461,26.169309245300294,13.5407,26.169309245300294,8.72307C26.169309245300294,3.90545,22.263809245300294,0,17.446189245300292,0C17.446189245300292,0,9.460270245300293,0,9.460270245300293,0C9.460270245300293,0,9.460270245300293,0,9.460270245300293,0Z" fill="#00C2FF" fill-opacity="1"/></g></g></svg>