<svg xmlns="http://www.w3.org/2000/svg" xmlns:xlink="http://www.w3.org/1999/xlink" fill="none" version="1.1" width="14" height="14" viewBox="0 0 14 14"><g><g></g><g><g><path d="M7.93483265625,0.931165C7.93483265625,0.416897,7.51794265625,0,7.00367265625,0C6.48940265625,0,6.07251265625,0.416897,6.07251265625,0.931165L6.07251265625,1.40222L5.833002656250001,1.40222C4.96703265625,1.40222,4.1365426562500005,1.74623,3.52420265625,2.35856C2.91187365625,2.97088,2.56786965625,3.80139,2.56786965625,4.66736C2.56786965625,5.53332,2.91187365625,6.36382,3.52420265625,6.97614C4.1365426562500005,7.58848,4.96703265625,7.93248,5.833002656250001,7.93248L8.40037265625,7.93248C8.77242265625,7.93248,9.12922265625,8.08028,9.39229265625,8.34336C9.65537265625,8.60643,9.80317265625,8.96325,9.80317265625,9.33528C9.80317265625,9.70733,9.65537265625,10.0642,9.39229265625,10.3272C9.12922265625,10.5903,8.77242265625,10.7381,8.40037265625,10.7381L7.04249265625,10.7381C7.02961265625,10.7376,7.01667265625,10.7373,7.00367265625,10.7373C6.99067265625,10.7373,6.97772265625,10.7376,6.96485265625,10.7381L5.599612656250001,10.7381C5.22756265625,10.7381,4.87074265625,10.5903,4.60767265625,10.3272C4.344592656250001,10.0642,4.19679265625,9.70733,4.19679265625,9.33528C4.19679265625,8.82102,3.77990265625,8.40413,3.2656356562499997,8.40413C2.75136865625,8.40413,2.33447265625,8.82102,2.33447265625,9.33528C2.33447265625,10.2013,2.67847665625,11.0317,3.29080765625,11.6441C3.90313265625,12.2564,4.73364265625,12.6004,5.599612656250001,12.6004L6.07251265625,12.6004L6.07251265625,13.0689C6.07251265625,13.5831,6.48940265625,14,7.00367265625,14C7.51794265625,14,7.93483265625,13.5831,7.93483265625,13.0689L7.93483265625,12.6004L8.40037265625,12.6004C9.26634265625,12.6004,10.096832656250001,12.2564,10.70916265625,11.6441C11.32150265625,11.0317,11.66549265625,10.2013,11.66549265625,9.33528C11.66549265625,8.46933,11.32150265625,7.63882,10.70916265625,7.02649C10.096832656250001,6.41417,9.26634265625,6.07016,8.40037265625,6.07016L5.833002656250001,6.07016C5.46095265625,6.07016,5.10415265625,5.92236,4.84106265625,5.65929C4.57799265625,5.39621,4.43019265625,5.0394,4.43019265625,4.66736C4.43019265625,4.29531,4.57799265625,3.93849,4.84106265625,3.67542C5.10415265625,3.41234,5.46095265625,3.26454,5.833002656250001,3.26454L7.93358265625,3.26454C8.11779265625,3.26454,8.30021265625,3.30083,8.47041265625,3.37132C8.64059265625,3.44183,8.79524265625,3.54516,8.92551265625,3.67542C9.05576265625,3.80569,9.159102656249999,3.96033,9.22960265625,4.13053C9.300092656250001,4.30071,9.336382656249999,4.48313,9.336382656249999,4.66736C9.336382656249999,5.18162,9.753272656250001,5.59851,10.267532656250001,5.59851C10.78181265625,5.59851,11.19870265625,5.18162,11.19870265625,4.66736C11.19870265625,4.23857,11.11425265625,3.81399,10.95016265625,3.41785C10.78607265625,3.0217,10.54556265625,2.66175,10.24236265625,2.35856C9.93918265625,2.05536,9.57922265625,1.81485,9.18308265625,1.65077C8.78732265625,1.48684,8.36318265625,1.40239,7.93483265625,1.40222L7.93483265625,0.931165Z" fill-rule="evenodd" fill="#AEB9E1" fill-opacity="1"/></g></g></g></svg>