<svg xmlns="http://www.w3.org/2000/svg" xmlns:xlink="http://www.w3.org/1999/xlink" fill="none" version="1.1" width="14" height="14" viewBox="0 0 14 14"><g><g></g><g><path d="M4.755662188138701,13.5L4.755662188138701,10.8839L2.492502188138701,12.1908Q2.4063721881387012,12.2405,2.307772188138701,12.2535Q2.209182188138701,12.2665,2.1131221881387012,12.2408Q2.017062188138701,12.215,1.938162188138701,12.1545Q1.859272188138701,12.0939,1.8095521881387011,12.0078L0.06739458813870103,8.98968Q0.04277558813870102,8.94703,0.02694948813870102,8.90039Q0.011123288138701021,8.85375,0.004698138138701021,8.80493Q-0.0017270118612989784,8.7561,0.0014957681387010218,8.70695Q0.0047185581387010215,8.65781,0.01746538813870102,8.61024Q0.030212288138701023,8.56267,0.051993388138701024,8.51849Q0.07377448813870102,8.47432,0.10375318813870102,8.43525Q0.13373118813870102,8.39618,0.17075418813870102,8.3637Q0.20777818813870103,8.33123,0.25042418813870104,8.3066L2.513592188138701,6.99969L0.25053218813870104,5.69284Q0.20788718813870102,5.66821,0.17086318813870102,5.63574Q0.13384018813870102,5.60326,0.10386118813870102,5.56419Q0.07388318813870103,5.52512,0.05210208813870102,5.48094Q0.030320988138701023,5.43677,0.01757418813870102,5.3892Q0.004827278138701022,5.34163,0.0016044881387010216,5.29248Q-0.0016183018612989783,5.24334,0.004806848138701022,5.19451Q0.011231988138701021,5.14568,0.027058188138701023,5.09905Q0.04288428813870102,5.05241,0.06750338813870102,5.00976L1.809662188138701,1.99163Q1.859382188138701,1.90549,1.938272188138701,1.84495Q2.017172188138701,1.7844,2.113232188138701,1.75866Q2.209282188138701,1.73292,2.307882188138701,1.74591Q2.406482188138701,1.7589,2.492612188138701,1.80863L4.755662188138701,3.11548L4.755662188138701,0.5Q4.755662188138701,0.450754,4.7652721881387015,0.402455Q4.774882188138701,0.354155,4.793722188138701,0.308658Q4.812572188138701,0.263161,4.839932188138701,0.222215Q4.867282188138701,0.181269,4.902112188138701,0.146447Q4.936932188138701,0.111625,4.977872188138701,0.0842652Q5.018822188138701,0.0569057,5.064322188138701,0.0380602Q5.109822188138701,0.0192147,5.158122188138701,0.00960736Q5.206412188138701,0,5.255662188138701,0L8.739822188138701,0Q8.7890621881387,0,8.837362188138702,0.00960736Q8.885662188138701,0.0192147,8.931162188138702,0.0380602Q8.9766621881387,0.0569057,9.017602188138701,0.0842652Q9.058552188138702,0.111625,9.093372188138702,0.146447Q9.128192188138701,0.181269,9.155552188138701,0.222215Q9.182912188138701,0.263161,9.201752188138702,0.308658Q9.2206021881387,0.354155,9.230212188138701,0.402455Q9.239822188138701,0.450754,9.239822188138701,0.5L9.239822188138701,3.11549L11.506292188138701,1.80668Q11.592392188138701,1.75694,11.6909921881387,1.74396Q11.789592188138702,1.73097,11.885692188138702,1.75671Q11.981692188138702,1.78245,12.0605921881387,1.84299Q12.139492188138702,1.90354,12.189192188138701,1.98968L13.931392188138702,5.00781Q13.955992188138701,5.05046,13.971792188138702,5.0971Q13.9876921881387,5.14373,13.994092188138701,5.19256Q14.0004921881387,5.24139,13.997292188138701,5.29053Q13.994092188138701,5.33967,13.981292188138701,5.38725Q13.9685921881387,5.43482,13.946792188138701,5.47899Q13.9249921881387,5.52316,13.894992188138701,5.56223Q13.8649921881387,5.60131,13.827992188138701,5.63378Q13.7909921881387,5.66626,13.748392188138702,5.69088L11.481892188138701,6.99969L13.748492188138702,8.30855Q13.791092188138702,8.33318,13.828092188138701,8.36565Q13.865192188138701,8.39813,13.895092188138701,8.4372Q13.9250921881387,8.47628,13.946892188138701,8.52045Q13.968692188138702,8.56462,13.9813921881387,8.61219Q13.994192188138701,8.65976,13.9973921881387,8.70891Q14.0005921881387,8.75805,13.994192188138701,8.80688Q13.987792188138702,8.85571,13.971892188138701,8.90234Q13.956092188138701,8.94898,13.931492188138701,8.99163L12.189292188138701,12.0098Q12.139592188138701,12.0959,12.0606921881387,12.1564Q11.981792188138702,12.217,11.885792188138701,12.2427Q11.789692188138702,12.2685,11.6910921881387,12.2555Q11.592492188138701,12.2425,11.506392188138701,12.1928L9.239822188138701,10.8839L9.239822188138701,13.5Q9.239822188138701,13.5492,9.230212188138701,13.5975Q9.2206021881387,13.6458,9.201762188138702,13.6913Q9.182912188138701,13.7368,9.155552188138701,13.7778Q9.128192188138701,13.8187,9.093372188138702,13.8536Q9.058552188138702,13.8884,9.017602188138701,13.9157Q8.9766621881387,13.9431,8.931162188138702,13.9619Q8.885662188138701,13.9808,8.837362188138702,13.9904Q8.7890621881387,14,8.739822188138701,14L5.255662188138701,14Q5.206412188138701,14,5.158122188138701,13.9904Q5.109822188138701,13.9808,5.064322188138701,13.9619Q5.018822188138701,13.9431,4.977882188138701,13.9157Q4.936932188138701,13.8884,4.902112188138701,13.8536Q4.867282188138701,13.8187,4.839932188138701,13.7778Q4.812572188138701,13.7368,4.793722188138701,13.6913Q4.774882188138701,13.6458,4.7652721881387015,13.5975Q4.755662188138701,13.5492,4.755662188138701,13.5ZM6.999172188138701,8.87256Q7.091152188138701,8.87256,7.182702188138701,8.86354Q7.274242188138701,8.85452,7.364462188138701,8.83657Q7.454682188138701,8.81862,7.542702188138701,8.79192Q7.630722188138701,8.76521,7.715712188138701,8.73Q7.800692188138701,8.69479,7.881822188138701,8.65142Q7.962942188138701,8.60805,8.039422188138701,8.55694Q8.1159121881387,8.50582,8.1870121881387,8.44745Q8.258122188138701,8.38909,8.323162188138701,8.32403Q8.3882121881387,8.25897,8.446562188138701,8.18785Q8.504922188138702,8.11673,8.556022188138702,8.04023Q8.607132188138701,7.96373,8.650492188138701,7.88259Q8.6938521881387,7.80145,8.7290521881387,7.71645Q8.764252188138702,7.63145,8.790952188138702,7.5434Q8.817662188138701,7.45536,8.8356021881387,7.36512Q8.853552188138702,7.27489,8.862562188138702,7.18332Q8.871582188138701,7.09176,8.871582188138701,6.99976Q8.871582188138701,6.90775,8.862562188138702,6.81619Q8.853552188138702,6.72463,8.8356021881387,6.63439Q8.817662188138701,6.54415,8.790952188138702,6.45611Q8.764252188138702,6.36807,8.7290521881387,6.28306Q8.6938521881387,6.19806,8.650492188138701,6.11692Q8.607132188138701,6.03578,8.556022188138702,5.95928Q8.504922188138702,5.88278,8.446562188138701,5.81166Q8.3882121881387,5.74054,8.323162188138701,5.67548Q8.258122188138701,5.61043,8.1870121881387,5.55206Q8.1159121881387,5.49369,8.039422188138701,5.44258Q7.962942188138701,5.39146,7.881822188138701,5.34809Q7.800692188138701,5.30472,7.715712188138701,5.26951Q7.630722188138701,5.2343,7.542702188138701,5.2076Q7.454672188138701,5.18089,7.364462188138701,5.16294Q7.274242188138701,5.14499,7.182702188138701,5.13597Q7.091152188138701,5.12695,6.999172188138701,5.12695Q6.907182188138701,5.12695,6.815642188138701,5.13597Q6.724102188138701,5.14499,6.633882188138701,5.16294Q6.543662188138701,5.18089,6.455632188138701,5.2076Q6.367612188138701,5.2343,6.282632188138701,5.26951Q6.197642188138701,5.30472,6.116522188138701,5.34809Q6.035392188138701,5.39146,5.958912188138701,5.44258Q5.882432188138701,5.49369,5.811322188138701,5.55206Q5.740222188138701,5.61043,5.675172188138701,5.67548Q5.610132188138701,5.74054,5.551772188138701,5.81166Q5.493422188138701,5.88278,5.442312188138701,5.95928Q5.391212188138701,6.03578,5.347852188138701,6.11692Q5.304482188138701,6.19806,5.269282188138701,6.28307Q5.234082188138701,6.36807,5.207382188138701,6.45611Q5.180682188138701,6.54415,5.162732188138701,6.63439Q5.144792188138701,6.72463,5.135772188138701,6.81619Q5.126752188138701,6.90775,5.126752188138701,6.99976Q5.126752188138701,7.09176,5.135772188138701,7.18332Q5.144792188138701,7.27489,5.162732188138701,7.36512Q5.180682188138701,7.45536,5.207382188138701,7.5434Q5.234082188138701,7.63145,5.269282188138701,7.71645Q5.304482188138701,7.80145,5.347852188138701,7.88259Q5.391212188138701,7.96373,5.442312188138701,8.04023Q5.493422188138701,8.11673,5.551772188138701,8.18785Q5.610132188138701,8.25897,5.675172188138701,8.32403Q5.740222188138701,8.38909,5.811322188138701,8.44745Q5.882432188138701,8.50582,5.958912188138701,8.55694Q6.035392188138701,8.60805,6.116522188138701,8.65142Q6.197642188138701,8.69479,6.282632188138701,8.73Q6.367612188138701,8.76521,6.455632188138701,8.79192Q6.543662188138701,8.81862,6.633882188138701,8.83657Q6.724102188138701,8.85452,6.815642188138701,8.86354Q6.907182188138701,8.87256,6.999172188138701,8.87256Z" fill-rule="evenodd" fill="#AEB9E1" fill-opacity="1"/></g></g></svg>