<svg xmlns="http://www.w3.org/2000/svg" xmlns:xlink="http://www.w3.org/1999/xlink" fill="none" version="1.1" width="14" height="14" viewBox="0 0 14 14"><g><g></g><g><g><path d="M0.943572998046875 10.944648385047913C0.943572998046875 9.515006890841875 2.102526417323503 8.356053471565247 3.532167911529541 8.356053471565247L10.467832088470459 8.356053471565247C11.897473582676497 8.356053471565247 13.056427001953125 9.515006890841875 13.056427001953125 10.944648385047913L13.056427001953125 11.533243298530579C13.056427001953125 12.637812798192165 12.160996501614711 13.533243298530579 11.056427001953125 13.533243298530579L2.943572998046875 13.533243298530579C1.8390034983852883 13.533243298530579 0.943572998046875 12.637812798192165 0.943572998046875 11.533243298530579Z" fill="#AEB9E1" fill-opacity="1"/></g><g transform="matrix(1,8.847090389226206e-17,-7.836867942004994e-17,1,0,-3.3306690738754696e-16)"><path d="M7.002210732421875,7.3696360511016845C8.908390732421875,7.3696360511016845,10.453670732421875,5.8243560511016845,10.453670732421875,3.9181760511016845C10.453670732421875,2.0119960511016846,8.908390732421875,0.46671605110168457,7.002210732421875,0.46671605110168457C5.096030732421875,0.46671605110168457,3.550750732421875,2.0119960511016846,3.550750732421875,3.9181760511016845C3.550750732421875,5.8243560511016845,5.096030732421875,7.3696360511016845,7.002210732421875,7.3696360511016845C7.002210732421875,7.3696360511016845,7.002210732421875,7.3696360511016845,7.002210732421875,7.3696360511016845Z" fill="#AEB9E1" fill-opacity="1"/></g></g></g></svg>