<svg xmlns="http://www.w3.org/2000/svg" xmlns:xlink="http://www.w3.org/1999/xlink" fill="none" version="1.1" width="14" height="14" viewBox="0 0 14 14"><g><g></g><g><path d="M10.2989,4.98863638671875C10.2989,4.98863638671875,9.17241,8.52886638671875,9.09196,8.85070638671875C9.09196,8.52886638671875,8.2069,2.17254638671875,8.2069,2.17254638671875C6.27586,2.17254638671875,5.22989,3.54036638671875,4.74713,4.98863638671875C4.74713,4.98863638671875,3.43604,7.74616638671875,3.35558,8.06800638671875C3.27512,7.82662638671875,3.05747,5.0690963867187495,3.05747,5.0690963867187495C2.89655,3.29898638671875,1.28736,2.17254638671875,0,2.17254638671875C0,2.17254638671875,1.6092,11.82771638671875,1.6092,11.82771638671875C3.62069,11.82771638671875,4.74713,10.45990638671875,5.31034,9.01162638671875C5.31034,9.01162638671875,6.51724,5.87369638671875,6.5977,5.71277638671875C6.5977,5.87369638671875,7.48276,11.82771638671875,7.48276,11.82771638671875C9.49425,11.82771638671875,10.6207,10.54036638671875,11.1839,9.17254638671875C11.1839,9.17254638671875,14,2.17254638671875,14,2.17254638671875C11.908,2.17254638671875,10.8621,3.54036638671875,10.2989,4.98863638671875C10.2989,4.98863638671875,10.2989,4.98863638671875,10.2989,4.98863638671875Z" fill="#AEB9E1" fill-opacity="1"/></g></g></svg>