<svg xmlns="http://www.w3.org/2000/svg" xmlns:xlink="http://www.w3.org/1999/xlink" fill="none" version="1.1" width="20" height="33.51171875" viewBox="0 0 20 33.51171875"><g><g><g><path d="M5.563667979431152,27.88449447888624C3.5048479794311524,27.82239447888624,2.7967879794311523,27.20369447888624,2.3447179794311523,27.01849447888624C3.2107309794311525,27.55769447888624,3.7370679794311523,28.57349447888624,3.8316479794311524,28.94659447888624C4.125767979431153,30.10669447888624,4.174787979431152,31.57419447888624,4.174787979431152,31.96939447888624C4.174787979431152,32.49229447888624,4.125767979431153,32.90079447888624,5.645367979431152,33.21129447888624C10.155177979431151,33.84849447888624,13.129017979431152,33.30929447888624,14.174817979431152,33.08059447888624C14.926417979431152,32.91609447888624,15.145617979431153,32.59039447888624,15.171517979431153,32.23089447888624C15.215117979431152,31.62629447888624,15.308817979431153,30.34199447888624,15.334917979431152,30.04129447888624C15.367617979431152,29.66549447888624,15.220517979431152,28.24399447888624,16.870817979431152,27.11649447888624C15.220517979431152,27.99889447888624,13.488517979431153,27.94979447888624,12.916617979431152,27.94979447888624C10.836007979431152,27.94979447888624,8.815307979431152,27.982494478886238,5.563667979431152,27.88449447888624C5.563667979431152,27.88449447888624,5.563667979431152,27.88449447888624,5.563667979431152,27.88449447888624ZM5.653417979431152,5.66010447888624C4.450797979431153,5.66010447888624,3.2460069794311526,6.03047447888624,2.793936979431152,6.215664478886239C3.349487979431152,5.66010447888624,3.7241979794311524,4.92481447888624,3.8070079794311527,4.54898447888624C4.0194279794311525,3.5849444788862397,4.117467979431153,1.93767447888624,4.117467979431153,1.5424644788862398C4.117467979431153,1.0195844788862398,4.068447979431152,0.6110924788862399,5.588057979431152,0.3006274788862398C10.097857979431152,-0.3366195211137602,13.071717979431153,0.20258747888623982,14.117417979431153,0.43134647888623984C14.869117979431152,0.5957654788862398,15.104617979431152,0.8987844788862398,15.130517979431152,1.2582644788862398C15.130517979431152,1.2582644788862398,15.132217979431152,1.2820744788862397,15.132217979431152,1.2820744788862397C15.176517979431152,1.89632447888624,15.268117979431153,3.1673844788862398,15.293917979431152,3.4641444788862397C15.326617979431152,3.8399644788862397,15.408317979431152,5.016434478886239,16.42131797943115,6.20924447888624C15.336417979431152,5.7386544788862395,13.970417979431152,5.66010447888624,13.398517979431153,5.66010447888624C13.398517979431153,5.66010447888624,5.653417979431152,5.66010447888624,5.653417979431152,5.66010447888624C5.653417979431152,5.66010447888624,5.653417979431152,5.66010447888624,5.653417979431152,5.66010447888624Z" fill="#081028" fill-opacity="1"/></g><g><path d="M0,10.772496010789872L0,22.92933601078987Q0,23.05773601078987,0.00629827,23.18593601078987Q0.0125965,23.31413601078987,0.0251779,23.44183601078987Q0.0377593,23.56963601078987,0.0565934,23.69653601078987Q0.0754275,23.823536010789873,0.100469,23.94943601078987Q0.125511,24.075336010789872,0.156699,24.19983601078987Q0.187888,24.32433601078987,0.225149,24.447136010789873Q0.262409,24.57003601078987,0.305652,24.69083601078987Q0.348895,24.811736010789872,0.398015,24.930336010789873Q0.447136,25.04893601078987,0.502017,25.164936010789873Q0.556897,25.280936010789873,0.617405,25.39413601078987Q0.677913,25.50733601078987,0.743903,25.61743601078987Q0.809892,25.727536010789873,0.881204,25.834336010789873Q0.952517,25.941036010789873,1.02898,26.04413601078987Q1.10544,26.14723601078987,1.18687,26.24643601078987Q1.2683,26.34563601078987,1.3545,26.44073601078987Q1.4407,26.535836010789872,1.53147,26.62663601078987Q1.62223,26.71743601078987,1.71734,26.80363601078987Q1.81245,26.88983601078987,1.91167,26.97123601078987Q2.01089,27.052636010789872,2.11399,27.12913601078987Q2.21709,27.20563601078987,2.32382,27.27693601078987Q2.43054,27.348236010789872,2.54064,27.41423601078987Q2.65074,27.48023601078987,2.76394,27.54073601078987Q2.87714,27.601236010789872,2.99318,27.656136010789872Q3.10921,27.710936010789872,3.2278,27.76013601078987Q3.34639,27.80923601078987,3.46724,27.852436010789873Q3.5881,27.89573601078987,3.71093,27.93293601078987Q3.83376,27.970236010789872,3.95827,28.00143601078987Q4.08279,28.032636010789872,4.20868,28.05763601078987Q4.33457,28.082636010789873,4.46154,28.10153601078987Q4.58851,28.12033601078987,4.71625,28.132936010789873Q4.84399,28.145536010789872,4.9722,28.15183601078987Q5.1004,28.15813601078987,5.22876,28.15813601078987L13.9529,28.15813601078987Q14.0813,28.15813601078987,14.2095,28.15183601078987Q14.3377,28.145536010789872,14.4654,28.132936010789873Q14.5932,28.12033601078987,14.7201,28.10153601078987Q14.8471,28.082636010789873,14.973,28.05763601078987Q15.0989,28.032636010789872,15.2234,28.00143601078987Q15.3479,27.970236010789872,15.4707,27.93293601078987Q15.5936,27.89573601078987,15.7144,27.852436010789873Q15.8353,27.80923601078987,15.9539,27.76013601078987Q16.0725,27.710936010789872,16.1885,27.656136010789872Q16.3045,27.601236010789872,16.4177,27.54073601078987Q16.5309,27.48023601078987,16.641,27.41423601078987Q16.7511,27.348236010789872,16.8579,27.27693601078987Q16.9646,27.20563601078987,17.0677,27.12913601078987Q17.1708,27.052636010789872,17.27,26.97123601078987Q17.3692,26.88983601078987,17.4643,26.80363601078987Q17.5594,26.71743601078987,17.6502,26.62663601078987Q17.741,26.535836010789872,17.8272,26.44073601078987Q17.9134,26.34563601078987,17.9948,26.24643601078987Q18.0762,26.14723601078987,18.1527,26.04413601078987Q18.2292,25.941036010789873,18.3005,25.834336010789873Q18.3718,25.727536010789873,18.4378,25.61743601078987Q18.5038,25.50733601078987,18.5643,25.39413601078987Q18.6248,25.280936010789873,18.6796,25.164936010789873Q18.7345,25.04893601078987,18.7837,24.930336010789873Q18.8328,24.811736010789872,18.876,24.69083601078987Q18.9193,24.57003601078987,18.9565,24.447136010789873Q18.9938,24.32433601078987,19.025,24.19983601078987Q19.0562,24.075336010789872,19.0812,23.94943601078987Q19.1062,23.823536010789873,19.1251,23.69653601078987Q19.1439,23.56963601078987,19.1565,23.44183601078987Q19.1691,23.31413601078987,19.1754,23.18593601078987Q19.1817,23.05773601078987,19.1817,22.92933601078987L19.1817,14.41476601078987C19.2934,14.444216010789871,19.5683,14.468076010789872,19.6548,14.40837601078987C19.672,14.39650601078987,19.6908,14.39068601078987,19.7105,14.38459601078987C19.797,14.357856010789872,19.901,14.325736010789871,19.9639,13.75260601078987C20.0412,13.048866010789872,19.9793,11.30548601078987,19.9175,11.01758601078987C19.9037,10.95337601078987,19.8776,10.900106010789871,19.845,10.856326010789871C19.7145,10.681196010789872,19.4665,10.681456010789871,19.2459,10.68169601078987L19.2221,10.68170601078987C19.2079,10.68170601078987,19.1942,10.68284601078987,19.1809,10.685116010789871Q19.1788,10.558146010789871,19.1705,10.43142601078987Q19.1622,10.304696010789872,19.1478,10.17852601078987Q19.1334,10.052356010789872,19.1129,9.927036010789871Q19.0923,9.801716010789871,19.0657,9.677536010789872Q19.0391,9.553356010789871,19.0066,9.430626010789872Q18.974,9.307886010789872,18.9355,9.18686601078987Q18.8969,9.065856010789872,18.8526,8.94685601078987Q18.8083,8.827856010789871,18.7582,8.711146010789871Q18.7081,8.59443601078987,18.6525,8.480306010789871Q18.5968,8.366166010789872,18.5356,8.254856010789872Q18.4745,8.14355601078987,18.408,8.035356010789872Q18.3415,7.927146010789871,18.2699,7.822306010789871Q18.1982,7.717456010789871,18.1216,7.616206010789871Q18.0449,7.5149660107898715,17.9634,7.4175560107898715Q17.882,7.320156010789871,17.7958,7.226816010789872Q17.7097,7.133486010789872,17.6192,7.044436010789871Q17.5286,6.955396010789871,17.4339,6.870856010789871Q17.3391,6.786306010789871,17.2404,6.706466010789871Q17.1416,6.626626010789871,17.0391,6.551666010789871Q16.9366,6.476712010789871,16.8306,6.406822010789871Q16.7245,6.336932010789871,16.6152,6.272271010789871Q16.5059,6.207611010789871,16.3936,6.148332010789871Q16.2813,6.089054010789871,16.1663,6.035298010789871Q16.0512,5.981542010789871,15.9337,5.933434010789871Q15.8161,5.885327010789871,15.6964,5.842982010789871Q15.5767,5.800636010789871,15.4551,5.7641530107898715Q15.3334,5.727670010789871,15.2101,5.6971350107898715Q15.0869,5.666600010789871,14.9623,5.6420855107898715Q14.8377,5.617570710789871,14.712,5.599133810789871Q14.5864,5.580696910789872,14.46,5.568381510789871Q14.3336,5.556066010789872,14.2067,5.549901010789871Q14.0799,5.543736010789871,13.9529,5.543736010789871L5.22876,5.543736010789871Q5.1004,5.543736010789871,4.9722,5.5500342807898715Q4.84399,5.556332510789871,4.71625,5.568913910789871Q4.58851,5.5814953107898715,4.46154,5.600329410789871Q4.33457,5.619163510789871,4.20868,5.644205010789872Q4.08279,5.669247010789872,3.95827,5.700435010789871Q3.83376,5.731624010789871,3.71093,5.768885010789871Q3.5881,5.806145010789871,3.46724,5.8493880107898715Q3.34639,5.892631010789871,3.2278,5.941751010789871Q3.10921,5.990872010789872,2.99318,6.045753010789872Q2.87714,6.100633010789871,2.76394,6.161141010789871Q2.65074,6.221649010789871,2.54064,6.287639010789871Q2.43054,6.353628010789871,2.32382,6.4249400107898715Q2.21709,6.4962530107898715,2.11399,6.572716010789871Q2.01089,6.649176010789871,1.91167,6.730606010789871Q1.81245,6.812036010789871,1.71734,6.898236010789871Q1.62223,6.984436010789871,1.53147,7.075206010789872Q1.4407,7.165966010789871,1.3545,7.261076010789871Q1.2683,7.356186010789871,1.18687,7.455406010789871Q1.10544,7.554626010789871,1.02898,7.657726010789871Q0.952517,7.760826010789871,0.881204,7.867556010789871Q0.809892,7.974276010789872,0.743903,8.084376010789871Q0.677913,8.19447601078987,0.617405,8.307676010789871Q0.556897,8.420876010789872,0.502017,8.536916010789872Q0.447136,8.652946010789872,0.398015,8.771536010789871Q0.348895,8.89012601078987,0.305652,9.010976010789872Q0.262409,9.131836010789872,0.225149,9.25466601078987Q0.187888,9.377496010789871,0.156699,9.502006010789872Q0.125511,9.62652601078987,0.100469,9.752416010789872Q0.0754275,9.87830601078987,0.0565934,10.00527601078987Q0.0377593,10.13224601078987,0.0251779,10.25998601078987Q0.0125965,10.387726010789871,0.00629827,10.515936010789872Q0,10.644136010789872,0,10.772496010789872Z" fill-rule="evenodd" fill="#7E89AC" fill-opacity="1"/></g><g><rect x="0.8169787526130676" y="6.36194184422493" width="17.545007705688477" height="20.978029251098633" rx="4.346405029296875" fill="#081028" fill-opacity="1"/></g></g><g><rect x="1.4413617849349976" y="6.943300247192383" width="16.332910537719727" height="19.95213508605957" rx="3.5457515716552734" fill="#0B1739" fill-opacity="1"/></g></g></svg>